<?xml version="1.0" standalone="no"?>
<!DOCTYPE svg PUBLIC "-//W3C//DTD SVG 20010904//EN"
 "http://www.w3.org/TR/2001/REC-SVG-20010904/DTD/svg10.dtd">
<svg version="1.0" xmlns="http://www.w3.org/2000/svg"
 width="300.000000pt" height="300.000000pt" viewBox="0 0 300.000000 300.000000"
 preserveAspectRatio="xMidYMid meet">
<metadata>
Created by potrace 1.10, written by Peter Selinger 2001-2011
</metadata>
<g transform="translate(0.000000,300.000000) scale(0.100000,-0.100000)"
fill="#000000" stroke="none">
<path d="M333 1805 c-19 -8 -47 -11 -68 -8 -25 4 -42 0 -61 -13 -15 -11 -43
-28 -63 -39 -23 -13 -37 -29 -39 -44 -2 -14 -15 -33 -28 -44 -30 -23 -31 -65
-3 -102 19 -23 28 -26 65 -23 24 2 44 0 44 -4 0 -15 70 -48 104 -48 24 0 35
-4 31 -11 -13 -19 5 -59 33 -73 15 -8 40 -26 54 -41 30 -30 58 -28 58 5 0 16
-7 20 -30 20 -35 0 -37 3 -10 30 11 11 20 30 20 42 0 17 3 19 12 10 18 -18 73
-15 89 6 34 40 52 89 45 123 -4 19 -8 48 -10 65 -5 54 -52 100 -153 149 -39
18 -49 18 -90 0z m85 -29 c20 -10 21 -14 9 -24 -11 -10 -17 -9 -24 0 -30 39
-25 47 15 24z m-155 -6 c-28 -11 -37 -41 -22 -74 13 -27 35 -37 25 -10 -3 8
-2 12 4 9 16 -10 12 -35 -5 -35 -20 0 -64 50 -65 72 0 21 37 48 65 47 19 0 19
-1 -2 -9z m97 -15 c7 -8 19 -15 26 -15 18 0 7 -61 -15 -78 -29 -23 -65 -11
-76 26 -5 17 -15 32 -22 32 -17 0 -17 15 1 29 11 9 16 6 24 -18 15 -44 82 -56
82 -16 0 9 -6 12 -15 9 -18 -7 -45 12 -45 32 0 19 24 18 40 -1z m130 -30 c10
-12 10 -18 0 -30 -18 -22 -60 -20 -60 3 0 37 38 54 60 27z m-41 -73 c13 -2 36
6 52 17 35 26 39 26 39 2 0 -19 -26 -28 -97 -34 -17 -2 -41 -11 -52 -21 -26
-24 -29 -2 -4 27 10 10 18 24 19 30 5 57 7 60 13 22 5 -32 11 -41 30 -43z
m-279 59 c0 -5 -6 -14 -14 -21 -8 -6 -12 -19 -9 -28 7 -18 5 -17 -15 9 -10 14
-10 20 3 33 18 17 35 21 35 7z m35 -42 c4 -5 -1 -19 -11 -30 -22 -25 -41 -10
-25 20 13 23 26 27 36 10z m-75 -39 c0 -11 9 -25 20 -32 29 -19 25 -38 -9 -38
-31 0 -61 22 -61 45 0 15 27 45 41 45 5 0 9 -9 9 -20z m150 -10 c0 -25 -21
-34 -55 -26 -33 8 -32 22 3 34 41 16 52 14 52 -8z m73 -15 c-6 -18 -34 -16
-41 3 -2 7 6 12 22 12 19 0 24 -4 19 -15z m89 -2 c24 -22 23 -35 -3 -31 -12 2
-26 13 -30 26 -10 27 6 30 33 5z m115 -5 c17 -38 6 -49 -30 -30 -57 30 -62 52
-14 52 25 0 36 -6 44 -22z m-317 -38 c16 0 30 7 34 15 3 8 13 15 23 15 15 0
14 -3 -6 -19 -17 -13 -22 -25 -18 -40 3 -14 0 -21 -9 -21 -20 0 -84 60 -83 79
0 12 3 11 16 -6 10 -15 26 -23 43 -23z m206 -20 c22 0 25 -2 14 -15 -29 -35
-90 -2 -90 49 0 17 3 16 25 -8 14 -15 35 -26 51 -26z m62 10 c14 0 27 -45 17
-59 -8 -14 -55 -15 -55 -2 0 6 5 13 10 16 6 3 10 15 10 26 0 10 -4 19 -10 19
-5 0 -10 8 -10 18 1 16 1 16 14 0 7 -10 18 -18 24 -18z m-176 3 c23 -21 23
-33 -1 -33 -22 0 -45 25 -36 40 9 14 15 13 37 -7z m73 -97 c0 -16 -6 -31 -14
-34 -11 -4 -12 2 -7 23 5 19 3 26 -6 23 -7 -3 -15 -15 -18 -29 -5 -22 -7 -22
-13 -5 -13 33 2 58 31 54 22 -2 27 -8 27 -32z"/>
<path d="M723 1648 c-47 -23 -36 -78 16 -78 38 0 72 -11 65 -21 -3 -5 -31 -6
-62 -3 l-57 6 21 -21 c28 -30 81 -37 128 -17 32 13 37 20 34 43 -2 23 -9 29
-43 36 -22 4 -50 6 -63 4 -18 -4 -20 -2 -10 10 8 11 25 12 66 7 44 -5 54 -4
50 7 -11 34 -97 50 -145 27z"/>
<path d="M920 1586 l0 -76 30 0 c23 0 30 4 30 20 0 17 7 20 44 20 87 0 130 40
88 82 -15 16 -38 21 -106 25 l-86 6 0 -77z m145 24 c7 -11 -3 -15 -52 -24 -28
-5 -33 -3 -33 14 0 17 7 20 39 20 22 0 43 -5 46 -10z"/>
<path d="M1198 1617 c32 -32 42 -51 42 -75 0 -29 3 -32 30 -32 27 0 30 3 30
34 0 27 8 41 40 70 22 20 40 38 40 41 0 3 -13 5 -30 5 -18 0 -38 -9 -53 -25
l-23 -26 -24 26 c-16 18 -34 25 -59 25 l-35 0 42 -43z"/>
<path d="M1430 1582 l0 -79 31 5 c31 5 31 5 27 53 -3 27 -2 49 1 49 3 -1 23
-23 44 -50 35 -45 42 -50 78 -50 l39 0 0 75 0 75 -30 0 c-28 0 -29 -1 -32 -55
l-3 -55 -42 55 c-38 48 -47 55 -78 55 l-35 0 0 -78z"/>
<path d="M1740 1647 c-56 -28 -52 -109 7 -134 119 -49 227 76 116 135 -28 16
-92 15 -123 -1z m100 -42 c17 -20 3 -54 -26 -61 -42 -11 -72 34 -42 64 16 16
53 15 68 -3z"/>
<path d="M1955 1585 l0 -75 33 0 c25 0 32 4 32 20 0 17 7 20 43 20 61 0 92 19
92 55 0 25 -6 32 -35 42 -19 7 -64 12 -100 12 l-65 1 0 -75z m145 20 c0 -10
-11 -16 -30 -16 -16 -1 -36 -2 -42 -3 -7 -1 -14 7 -16 17 -3 14 4 17 42 17 34
0 46 -4 46 -15z"/>
<path d="M2233 1650 c-48 -19 -36 -80 16 -80 38 0 72 -11 65 -21 -3 -5 -31 -6
-62 -3 l-57 7 19 -21 c40 -46 150 -36 162 15 9 35 -7 46 -74 47 -48 1 -56 3
-43 13 11 8 34 10 70 6 43 -5 53 -3 49 8 -11 33 -94 50 -145 29z"/>
<path d="M2430 1585 l0 -75 30 0 30 0 0 75 0 75 -30 0 -30 0 0 -75z"/>
<path d="M2550 1585 l0 -75 30 0 c27 0 30 3 30 30 0 29 1 30 51 30 36 0 49 4
46 13 -2 8 -20 11 -50 9 -38 -3 -47 0 -47 12 0 13 12 16 55 16 48 0 55 2 55
20 0 18 -7 20 -85 20 l-85 0 0 -75z"/>
<path d="M2760 1655 c0 -3 18 -21 40 -41 32 -29 40 -43 40 -70 0 -31 3 -34 30
-34 27 0 30 3 30 32 0 24 10 43 42 75 l42 43 -36 0 c-28 0 -42 -7 -58 -27
l-22 -28 -22 28 c-16 19 -31 27 -54 27 -18 0 -32 -2 -32 -5z"/>
</g>
</svg>
